<?xml version="1.0" encoding="UTF-8" standalone="no"?>
<!DOCTYPE svg PUBLIC "-//W3C//DTD SVG 1.1//EN" "http://www.w3.org/Graphics/SVG/1.1/DTD/svg11.dtd">
<svg width="100%" height="100%" viewBox="0 0 3508 2481" version="1.1" xmlns="http://www.w3.org/2000/svg" xmlns:xlink="http://www.w3.org/1999/xlink" xml:space="preserve" xmlns:serif="http://www.serif.com/" style="fill-rule:evenodd;clip-rule:evenodd;stroke-linecap:round;stroke-linejoin:round;stroke-miterlimit:1.5;">
    <g transform="matrix(4.45072,0,0,4.45072,1604.38,1123.73)">
        <path d="M16.03,-6.974C26.984,-6.974 35.877,1.946 35.877,12.933C35.877,23.92 26.984,32.84 16.03,32.84C5.076,32.84 -3.817,23.92 -3.817,12.933C-3.817,1.946 5.076,-6.974 16.03,-6.974ZM8.521,5.38L2.57,5.38C1.88,5.38 1.31,5.95 1.31,6.64L1.31,12.12C1.31,12.81 1.87,13.38 2.57,13.38L8.541,13.38C8.527,13.289 8.52,13.195 8.52,13.1L8.52,5.43C8.52,5.413 8.52,5.397 8.521,5.38ZM9.254,14.565L5.36,20.95C5,21.54 5.19,22.32 5.79,22.69L10.26,25.42C10.45,25.54 10.68,25.6 10.91,25.6C11.35,25.6 11.76,25.37 11.99,24.99L15.339,19.499L16.45,21.68C16.66,22.11 17.09,22.37 17.57,22.37C17.77,22.37 17.97,22.32 18.16,22.24L23.02,19.77C23.64,19.45 23.88,18.69 23.57,18.07L21.954,14.896C21.839,14.918 21.721,14.93 21.6,14.93L10.35,14.93C9.939,14.93 9.56,14.794 9.254,14.565ZM23.409,13.38L29.49,13.38C30.18,13.38 30.75,12.81 30.75,12.12L30.75,6.64C30.75,5.95 30.19,5.38 29.49,5.38L23.429,5.38C23.429,5.397 23.43,5.413 23.43,5.43L23.43,13.1C23.43,13.195 23.423,13.289 23.409,13.38ZM21.59,4.73L10.35,4.73C9.96,4.73 9.65,5.05 9.65,5.43L9.65,13.1C9.65,13.49 9.97,13.8 10.35,13.8L21.59,13.8C21.98,13.8 22.29,13.48 22.29,13.1L22.29,5.43C22.29,5.04 21.97,4.73 21.59,4.73Z" style="fill:rgb(1,1,1);"/>
    </g>
    <g transform="matrix(4.45072,0,0,4.45072,1604.38,1123.73)">
        <path d="M8.541,13.38L2.57,13.38C1.87,13.38 1.31,12.81 1.31,12.12L1.31,6.64C1.31,5.95 1.88,5.38 2.57,5.38L8.521,5.38C8.52,5.397 8.52,5.413 8.52,5.43L8.52,13.1C8.52,13.195 8.527,13.289 8.541,13.38ZM23.429,5.38L29.49,5.38C30.19,5.38 30.75,5.95 30.75,6.64L30.75,12.12C30.75,12.81 30.18,13.38 29.49,13.38L23.409,13.38C23.423,13.289 23.43,13.195 23.43,13.1L23.43,5.43C23.43,5.413 23.429,5.397 23.429,5.38ZM21.954,14.896L23.57,18.07C23.88,18.69 23.64,19.45 23.02,19.77L18.16,22.24C17.97,22.32 17.77,22.37 17.57,22.37C17.09,22.37 16.66,22.11 16.45,21.68L15.339,19.499L11.99,24.99C11.76,25.37 11.35,25.6 10.91,25.6C10.68,25.6 10.45,25.54 10.26,25.42L5.79,22.69C5.19,22.32 5,21.54 5.36,20.95L9.254,14.565C9.56,14.794 9.939,14.93 10.35,14.93L21.6,14.93C21.721,14.93 21.839,14.918 21.954,14.896ZM21.59,4.73C21.97,4.73 22.29,5.04 22.29,5.43L22.29,13.1C22.29,13.48 21.98,13.8 21.59,13.8L10.35,13.8C9.97,13.8 9.65,13.49 9.65,13.1L9.65,5.43C9.65,5.05 9.96,4.73 10.35,4.73L21.59,4.73Z" style="fill:white;"/>
    </g>
    <g transform="matrix(1,0,0,1,71.5071,-16.379)">
        <ellipse cx="1604.1" cy="1197.75" rx="88.457" ry="88.684" style="fill:none;stroke:white;stroke-width:12.5px;"/>
    </g>
</svg>
